# xmcd
#
# Track frame offsets: 
#        150
#        21453
#        37420
#        60317
#        76904
#        89284
#        118813
#        134409
#        155962
#        182690
#        196324
#        217548
#        236766
#        253851
#        267470
#        299582
#        313507
#
# Disc length: 4379 seconds
#
# Revision: 0
# Processed by: cddbd v1.5.2PL0 Copyright (c) Steve Scherf et al.
# Submitted via: ExactAudioCopy v1.3
#
DISCID=02111911
DTITLE=Peter Green's Splinter Group - The Very Best Of
DYEAR=2019
DGENRE=Blues
TTITLE0=Heart Of Stone
TTITLE1=I'm A Steady Rollin' Man (feat. Otis Rush)
TTITLE2=Big Change Is Gonna Come
TTITLE3=Homework
TTITLE4=When You Got A Good Friend
TTITLE5=You'll Be Sorry Someday
TTITLE6=Phonograph Blues
TTITLE7=Love In Vain Blues
TTITLE8=Burglar
TTITLE9=From Four Till Late (feat. Dr. John)
TTITLE10=Hiding In Shadows
TTITLE11=Sweet Home Chicago (feat. Paul Rodgers)
TTITLE12=Hitch Hiking Woman
TTITLE13=Me And The Devil Blues
TTITLE14=Goin' Down
TTITLE15=Man Of The World
TTITLE16=Albatross
EXTD=
EXTT0=
EXTT1=
EXTT2=
EXTT3=
EXTT4=
EXTT5=
EXTT6=
EXTT7=
EXTT8=
EXTT9=
EXTT10=
EXTT11=
EXTT12=
EXTT13=
EXTT14=
EXTT15=
EXTT16=
PLAYORDER=
